<svg width="24" height="24" viewBox="0 0 24 24" fill="none" xmlns="http://www.w3.org/2000/svg">
<path fill-rule="evenodd" clip-rule="evenodd" d="M12.765 0.297562C12.3322 -0.0991875 11.6678 -0.0991875 11.235 0.297562L0.95447 9.72141C0.346279 10.2789 0 11.0661 0 11.8911V21.0566C0 22.6823 1.31781 24 2.9434 24H21.0566C22.6823 24 24 22.6823 24 21.0566V11.8911C24 11.0661 23.6537 10.2789 23.0456 9.72141L12.765 0.297562ZM2.48441 11.3904L12 2.66782L21.5156 11.3904C21.656 11.5191 21.7358 11.7008 21.7358 11.8911V21.0566C21.7358 21.4317 21.4317 21.7358 21.0566 21.7358H13.8113V15.6226C13.8113 14.6223 13.0004 13.8113 12 13.8113C10.9996 13.8113 10.1887 14.6223 10.1887 15.6226V21.7358H2.9434C2.56825 21.7358 2.26415 21.4317 2.26415 21.0566V11.8911C2.26415 11.7008 2.34407 11.5191 2.48441 11.3904Z" fill="white"/>
</svg>
