<svg width="16" height="16" viewBox="0 0 16 16" fill="none" xmlns="http://www.w3.org/2000/svg">
<path fill-rule="evenodd" clip-rule="evenodd" d="M1.73903 7.38098C1.73903 4.29882 4.15266 1.80024 7.13002 1.80024C10.1074 1.80024 12.521 4.29882 12.521 7.38098C12.521 10.4631 10.1074 12.9617 7.13002 12.9617C4.15266 12.9617 1.73903 10.4631 1.73903 7.38098ZM7.13002 0C3.19222 0 0 3.30458 0 7.38098C0 11.4574 3.19222 14.762 7.13002 14.762C8.78558 14.762 10.3093 14.1779 11.5195 13.1979L14.1669 15.9385L15.3965 14.6655L12.7491 11.9249C13.6958 10.6722 14.2601 9.09481 14.2601 7.38098C14.2601 3.30458 11.0678 0 7.13002 0Z" fill="white"/>
</svg>
