<svg width="24" height="24" viewBox="0 0 24 24" fill="none" xmlns="http://www.w3.org/2000/svg">
<g clip-path="url(#clip0_39_19)">
<path fill-rule="evenodd" clip-rule="evenodd" d="M11 0C8.08262 0 5.28473 1.15893 3.22183 3.22183C1.15893 5.28473 0 8.08262 0 11C0 13.9174 1.15893 16.7153 3.22183 18.7782C5.28473 20.8411 8.08262 22 11 22C13.3275 22 15.579 21.2623 17.4419 19.9165L21.5254 24L24.0003 21.5252L19.9167 17.4416C21.2624 15.5788 22 13.3274 22 11C22 8.08262 20.8411 5.28473 18.7782 3.22183C16.7153 1.15893 13.9174 0 11 0ZM4.98959 4.98959C6.58365 3.39553 8.74566 2.5 11 2.5C13.2543 2.5 15.4163 3.39553 17.0104 4.98959C18.6045 6.58365 19.5 8.74566 19.5 11C19.5 13.2543 18.6045 15.4163 17.0104 17.0104C15.4163 18.6045 13.2543 19.5 11 19.5C8.74566 19.5 6.58365 18.6045 4.98959 17.0104C3.39553 15.4163 2.5 13.2543 2.5 11C2.5 8.74566 3.39553 6.58365 4.98959 4.98959Z" fill="white"/>
</g>
<defs>
<clipPath id="clip0_39_19">
<rect width="24" height="24" fill="white"/>
</clipPath>
</defs>
</svg>
