<svg width="2" height="3" viewBox="0 0 2 3" fill="none" xmlns="http://www.w3.org/2000/svg">
<path d="M1.0903 0.821474C0.901238 0.821561 0.718013 0.887274 0.571918 1.00729C0.425822 1.12732 0.325839 1.29429 0.28906 1.47977C0.25228 1.66524 0.280893 1.85774 0.370143 2.02445C0.459364 2.19114 0.603622 2.32181 0.778359 2.39408C0.953068 2.46636 1.14743 2.47581 1.32838 2.42083C1.50928 2.36585 1.66558 2.24988 1.77052 2.09262C1.87552 1.93532 1.92271 1.74655 1.90411 1.55837C1.88553 1.37022 1.80223 1.19434 1.66847 1.06067C1.59263 0.984661 1.50251 0.924374 1.40328 0.883336C1.30403 0.842328 1.19772 0.821269 1.0903 0.821474Z" fill="black"/>
</svg>
