<svg width="5" height="5" viewBox="0 0 5 5" fill="none" xmlns="http://www.w3.org/2000/svg">
<path d="M3.97829 1.85464C3.85981 1.83994 3.74002 1.86896 3.64147 1.93639C3.44579 2.07021 3.24921 2.20248 3.05079 2.3314C2.64936 2.59229 2.16922 2.1342 2.40775 1.71896L2.7798 1.07595C2.833 0.99813 2.8626 0.906635 2.86511 0.812426C2.86762 0.718218 2.84289 0.625264 2.79389 0.544734C2.74486 0.464205 2.67369 0.399572 2.58884 0.358505C2.50403 0.317409 2.40912 0.301689 2.31558 0.313152C1.90267 0.365389 1.51884 0.553484 1.22457 0.847834C1.11251 0.960214 0.771702 1.30132 0.588273 2.60119C0.536065 2.97452 0.503165 3.35033 0.48966 3.72708C0.487998 3.79247 0.499431 3.85751 0.52329 3.91844C0.547177 3.97934 0.582994 4.03485 0.62864 4.08169C0.674315 4.1285 0.728885 4.16572 0.789173 4.19112C0.849431 4.21653 0.914181 4.22959 0.979602 4.22956H0.991852C1.36889 4.21623 1.74502 4.18354 2.11868 4.13159C3.41916 3.94787 3.76026 3.60674 3.87235 3.49468C4.16807 3.20027 4.3557 2.81466 4.40482 2.40032C4.4206 2.27137 4.38452 2.14149 4.30451 2.03918C4.22454 1.93686 4.1072 1.87048 3.97829 1.85464Z" fill="black"/>
</svg>
