<svg width="14" height="14" viewBox="0 0 14 14" fill="none" xmlns="http://www.w3.org/2000/svg">
<path d="M13.6411 0.553027C13.641 0.552093 13.641 0.55116 13.6411 0.550256C13.6152 0.436739 13.5581 0.332702 13.4762 0.249927C13.3944 0.167122 13.291 0.108847 13.1777 0.0816933C12.2651 -0.140936 10.8295 0.0963933 9.23847 0.733393C7.63494 1.37652 6.13245 2.32589 5.11693 3.34329C4.79143 3.66706 4.48903 4.01321 4.21197 4.37934C3.52813 4.34869 2.92572 4.44611 2.41825 4.66751C0.649964 5.44568 0.144943 7.43724 0.0105142 8.25492C-0.00893992 8.37109 -0.00132742 8.49024 0.0327684 8.60297C0.0668643 8.7157 0.12651 8.81909 0.207098 8.90505C0.287656 8.991 0.386998 9.05715 0.497306 9.09842C0.607643 9.13972 0.726002 9.15498 0.843223 9.14305H0.847189L2.81699 8.92809C2.81944 8.9532 2.82218 8.97616 2.82434 8.9973C2.84963 9.23731 2.95667 9.46134 3.12753 9.63182L4.08886 10.5938C4.25905 10.7649 4.48305 10.872 4.72309 10.8972L4.78895 10.9043L4.57457 12.8717V12.8757C4.56361 12.9816 4.57489 13.0887 4.60768 13.19C4.64046 13.2914 4.69407 13.3848 4.76497 13.4642C4.83591 13.5437 4.92262 13.6075 5.01963 13.6515C5.11661 13.6956 5.22172 13.7189 5.32827 13.72C5.37082 13.72 5.41332 13.7165 5.45538 13.7096C6.27764 13.5773 8.26827 13.0784 9.04431 11.3006C9.2639 10.7965 9.36097 10.1966 9.3337 9.51393C9.7014 9.23743 10.0489 8.93503 10.3734 8.60895C11.3972 7.59036 12.3497 6.10015 12.9861 4.5199C13.6197 2.947 13.8583 1.50056 13.6411 0.553027ZM10.3624 5.90876C10.1108 6.16064 9.79007 6.33226 9.44089 6.40182C9.0917 6.47144 8.72974 6.43589 8.40071 6.29974C8.07174 6.16359 7.79055 5.93288 7.59268 5.63686C7.39484 5.34082 7.28923 4.99278 7.28923 4.63671C7.28923 4.28064 7.39484 3.9326 7.59268 3.63659C7.79055 3.34054 8.07174 3.10989 8.40071 2.97369C8.72974 2.83753 9.09173 2.80204 9.44089 2.87157C9.79007 2.94119 10.1108 3.11278 10.3624 3.36472C10.5311 3.53083 10.665 3.72887 10.7564 3.94724C10.8478 4.16558 10.895 4.39996 10.895 4.63671C10.895 4.87346 10.8478 5.10784 10.7564 5.32621C10.665 5.54458 10.5311 5.74259 10.3624 5.90876Z" fill="black"/>
</svg>
